# xmcd
#
# Track frame offsets:
#	150
#	15402
#	27758
#	40837
#	53613
#	65263
#	76639
#	90287
#	103766
#	115716
#	129146
#	144449
#	158127
#	171705
#	184045
#	199362
#	214180
#	231897
#	250250
#	268334
#	279070
#	291820
#	304500
#	315816
#	331813
#
# Disc length: 4649 seconds
# Revision: 0
# Processed by: cddbd v1.5.2PL0 Copyright (c) Steve Scherf et al.
# Submitted via: dBpowerAMP V12.0
#
DISCID=45122719
DTITLE=Various Artist - Original Queen of Soul: Three Decades Of Artistry, Disc 2
DYEAR=2014
DGENRE=Jazz
TTITLE0=Dinah Washington - Cold, Cold Heart
TTITLE1=Ike Carpenter Orchestra - If You Don't Believe I'm Leaving (Count the Days I'm Gone)
TTITLE2=Dinah Washington - Trouble In Mind
TTITLE3=Dinah Washington - Double Dealing Daddy
TTITLE4=Jimmy Cobb and His Orchestra - Half As Much
TTITLE5=Jimmy Cobb and His Orchestra - I Cried For You
TTITLE6=Dinah Washington - Mad About the Boy
TTITLE7=Jimmy Cobb and His Orchestra - My Song
TTITLE8=Nook Schreier Orchestra - New Blowtop Blues
TTITLE9=Dinah Washington - Pillow Blues
TTITLE10=Dinah Washington - Feel Like I Wanna Cry
TTITLE11=Dinah Washington - (No, No, No) You Can't Love Two
TTITLE12=Dinah Washington - Big Long Slidin' Thing
TTITLE13=Hal Mooney and His Orchestra - Dream
TTITLE14=Dinah Washington - Goodbye
TTITLE15=Dinah Washington - I Could Have Told You
TTITLE16=Dinah Washington - More Than You Know
TTITLE17=Dinah Washington - You Don't Know What Love is
TTITLE18=Quincy Jones and His Orchestra - I'll Close My Eyes
TTITLE19=Hal Mooney and His Orchestra - My Ideal
TTITLE20=Quincy Jones and His Orchestra - Tears To Burn
TTITLE21=Quincy Jones and His Orchestra - They Didn't Believe Me
TTITLE22=Quincy Jones and His Orchestra - You Let My Love Get Cold
TTITLE23=Quincy Jones and His Orchestra - You're Crying
TTITLE24=Dinah Washington - Make Me a Present of You
EXTD=
EXTT0=
EXTT1=
EXTT2=
EXTT3=
EXTT4=
EXTT5=
EXTT6=
EXTT7=
EXTT8=
EXTT9=
EXTT10=
EXTT11=
EXTT12=
EXTT13=
EXTT14=
EXTT15=
EXTT16=
EXTT17=
EXTT18=
EXTT19=
EXTT20=
EXTT21=
EXTT22=
EXTT23=
EXTT24=
PLAYORDER=
